<?xml version="1.0" encoding="UTF-8" standalone="no"?>
<!-- Created with Inkscape (http://www.inkscape.org/) -->

<svg
   xmlns:dc="http://purl.org/dc/elements/1.1/"
   xmlns:cc="http://creativecommons.org/ns#"
   xmlns:rdf="http://www.w3.org/1999/02/22-rdf-syntax-ns#"
   xmlns:svg="http://www.w3.org/2000/svg"
   xmlns="http://www.w3.org/2000/svg"
   xmlns:sodipodi="http://sodipodi.sourceforge.net/DTD/sodipodi-0.dtd"
   xmlns:inkscape="http://www.inkscape.org/namespaces/inkscape"
   id="svg3056"
   version="1.1"
   inkscape:version="0.48.3.1 r9886"
   width="95.647003"
   height="31.999872"
   xml:space="preserve"
   sodipodi:docname="FNP_katalog_RGB_02.pdf"><metadata
     id="metadata3062"><rdf:RDF><cc:Work
         rdf:about=""><dc:format>image/svg+xml</dc:format><dc:type
           rdf:resource="http://purl.org/dc/dcmitype/StillImage" /><dc:title></dc:title></cc:Work></rdf:RDF></metadata><defs
     id="defs3060" /><sodipodi:namedview
     pagecolor="#ffffff"
     bordercolor="#666666"
     borderopacity="1"
     objecttolerance="10"
     gridtolerance="10"
     guidetolerance="10"
     inkscape:pageopacity="0"
     inkscape:pageshadow="2"
     inkscape:window-width="1280"
     inkscape:window-height="969"
     id="namedview3058"
     showgrid="false"
     fit-margin-top="0"
     fit-margin-left="0"
     fit-margin-right="0"
     fit-margin-bottom="0"
     inkscape:zoom="1.2685912"
     inkscape:cx="-67.660818"
     inkscape:cy="-87.175055"
     inkscape:window-x="0"
     inkscape:window-y="27"
     inkscape:window-maximized="1"
     inkscape:current-layer="g3064" /><g
     id="g3064"
     inkscape:groupmode="layer"
     inkscape:label="FNP_katalog_RGB_02"
     transform="matrix(1.25,0,0,-1.25,-392.4115,700.17056)"><g
       id="g3142"
       transform="matrix(0.3257457,0,0,0.3257457,237.46427,369.04399)"><path
         id="path3102"
         style="fill:#ffffff;fill-opacity:1;fill-rule:nonzero;stroke:none"
         d="m 345.4191,515.2626 4.2532,0 0,7.2306 1.3671,0 c 1.7923,0 2.643,0.1517 3.5544,0.6682 1.9749,1.0635 3.1294,3.1898 3.1294,5.7421 0,2.0049 -0.6381,3.767 -1.8533,4.9822 -1.1849,1.2152 -2.4304,1.6404 -4.6176,1.6404 l -5.8332,0 0,-20.2635 z m 4.2532,11.1495 0,5.1951 0.9419,0 c 1.0329,0 1.3975,-0.0913 1.853,-0.4558 0.5165,-0.4558 0.79,-1.1543 0.79,-2.1266 0,-1.0026 -0.2735,-1.7013 -0.79,-2.1571 -0.4555,-0.3646 -0.8201,-0.4556 -1.853,-0.4556 l -0.9419,0 z m 15.8533,5.0431 c -3.7973,0 -6.1671,-3.1898 -6.1671,-8.2329 0,-5.0734 2.3698,-8.2687 6.1671,-8.2687 3.7975,0 6.1673,3.1343 6.1673,8.0864 0,5.3164 -2.2788,8.4152 -6.1673,8.4152 z m 0,-3.5543 c 1.4584,0 2.1875,-1.6104 2.1875,-4.8002 0,-2.9469 -0.79,-4.5873 -2.1875,-4.5873 -0.8204,0 -1.3672,0.4555 -1.7014,1.3972 -0.3036,0.881 -0.4858,2.0659 -0.4858,3.3117 0,1.2152 0.1822,2.3998 0.4858,3.2808 0.3342,0.942 0.881,1.3978 1.7014,1.3978 z m 8.7749,-12.6383 3.9189,0 0,20.2635 -3.9189,0 0,-20.2635 z m 6.0404,5.0735 c 0.3038,-3.4025 2.4,-5.3825 5.7115,-5.3825 1.5797,0 2.9469,0.4303 3.9192,1.2507 1.0326,0.881 1.7314,2.4307 1.7314,3.8582 0,2.0052 -0.881,3.5243 -2.5215,4.375 -0.6074,0.3036 -1.3671,0.5771 -2.4304,0.881 -1.0936,0.3036 -1.4581,0.4555 -1.7317,0.6681 -0.2429,0.2433 -0.3948,0.6078 -0.3948,0.9723 0,0.6988 0.5164,1.1546 1.3365,1.1546 0.9116,0 1.3975,-0.6078 1.4888,-1.7623 l 3.8885,0 c -0.3342,3.251 -2.3695,5.104 -5.5899,5.104 -3.0076,0 -5.1038,-1.9442 -5.1038,-4.8001 0,-1.2456 0.4859,-2.5215 1.2759,-3.3721 0.6381,-0.6684 1.4584,-1.124 2.8559,-1.5495 1.0023,-0.3342 0.6987,-0.2429 1.0023,-0.3342 0.8204,-0.2735 0.8507,-0.2735 0.942,-0.3038 0.6378,-0.243 1.0026,-0.7291 1.0026,-1.3062 0,-0.881 -0.6381,-1.4885 -1.58,-1.4885 -1.1543,0 -1.7618,0.6681 -1.9137,2.0353 l -3.8888,0 z m 17.6456,15.19 -3.9189,0 0,-20.2635 3.9189,0 0,5.4077 1.0026,1.5191 2.5217,-6.9268 4.0709,0 -4.1621,9.9343 3.7672,5.9545 -4.1318,0 -3.0685,-5.7116 0,10.0863 z m 20.2283,-4.3747 -3.433,0 0,-1.6101 c -0.5468,1.2152 -1.7317,1.9139 -3.2811,1.9139 -3.1901,0 -5.0735,-3.0988 -5.0735,-8.3848 0,-5.0128 1.9443,-8.1168 5.0735,-8.1168 1.4885,0 2.5214,0.5823 3.2811,1.9191 l 0,-1.6101 3.433,0 0,15.8888 z m -3.9191,-9.3266 c 0,-1.3368 -0.0913,-1.8229 -0.3949,-2.4001 -0.3039,-0.5468 -0.881,-0.9113 -1.4888,-0.9113 -1.3972,0 -2.0049,1.3669 -2.0049,4.557 0,3.3417 0.6077,4.8305 2.0049,4.8305 1.1849,0 1.8837,-1.0332 1.8837,-2.8559 l 0,-3.2202 z"
         inkscape:connector-curvature="0" /><path
         id="path3104"
         style="fill:#ffffff;fill-opacity:1;fill-rule:nonzero;stroke:none"
         d="m 345.0847,543.4872 3.5056,0 0,9.1576 c 0,1.4947 0.462,2.1469 1.5219,2.1469 0.5706,0 1.114,-0.3534 1.2498,-0.8424 0.0816,-0.2174 0.136,-0.7064 0.136,-1.1957 l 0,-9.2664 3.5054,0 0,10.1902 c 0,2.636 -1.5217,4.2937 -3.9674,4.2937 -1.4675,0 -2.3369,-0.5165 -2.8806,-1.7119 l 0,1.44 -3.0707,0 0,-14.212 z m 17.7675,14.4839 c -3.3967,0 -5.5165,-2.8534 -5.5165,-7.3641 0,-4.5383 2.1198,-7.3962 5.5165,-7.3962 3.3968,0 5.5165,2.8038 5.5165,7.2329 0,4.7554 -2.0381,7.5274 -5.5165,7.5274 z m 0,-3.1794 c 1.3045,0 1.9565,-1.4402 1.9565,-4.2936 0,-2.6359 -0.7064,-4.1031 -1.9565,-4.1031 -0.7336,0 -1.2228,0.4073 -1.5216,1.2498 -0.2719,0.7883 -0.4349,1.8479 -0.4349,2.9622 0,1.0868 0.163,2.1466 0.4349,2.9347 0.2988,0.8424 0.788,1.25 1.5216,1.25 z m 9.9411,2.9075 -3.5643,0 3.5643,-14.212 3.2069,0 1.8476,9.3206 1.8479,-9.3206 3.2337,0 3.5329,14.212 -3.5329,0 -0.9238,-4.7281 c -0.462,-2.4186 -0.5164,-2.9078 -0.7066,-5.1634 -0.163,2.1198 -0.2444,2.5274 -0.8969,5.1634 l -1.1412,4.7281 -2.8262,0 -1.3042,-5.4348 c -0.0272,-0.1358 -0.0816,-0.4349 -0.2174,-1.114 -0.1089,-0.4621 -0.163,-0.7339 -0.1902,-1.0055 -0.2175,-0.951 -0.2447,-1.2229 -0.3263,-2.3372 -0.0541,0.8969 -0.1086,1.4403 -0.163,1.9024 -0.1086,0.788 -0.2716,1.7935 -0.3804,2.3369 l -1.0599,5.6522 z m 19.9959,0.2719 c -3.3968,0 -5.5165,-2.8534 -5.5165,-7.3641 0,-4.5383 2.1197,-7.3962 5.5165,-7.3962 3.3968,0 5.5165,2.8038 5.5165,7.2329 0,4.7554 -2.0381,7.5274 -5.5165,7.5274 z m 0,-3.1794 c 1.3042,0 1.9565,-1.4402 1.9565,-4.2936 0,-2.6359 -0.7064,-4.1031 -1.9565,-4.1031 -0.7339,0 -1.2229,0.4073 -1.5216,1.2498 -0.2719,0.7883 -0.4349,1.8479 -0.4349,2.9622 0,1.0868 0.163,2.1466 0.4349,2.9347 0.2987,0.8424 0.7877,1.25 1.5216,1.25 z m 17.3052,-2.6631 c -0.1085,1.8207 -0.2715,2.6087 -0.8149,3.6414 -0.7609,1.4403 -2.1198,2.2011 -3.8861,2.2011 -1.9564,0 -3.3423,-0.8425 -4.2392,-2.6087 -0.6794,-1.4131 -1.0054,-2.935 -1.0054,-4.8643 0,-1.9292 0.4618,-3.7772 1.2501,-5.1361 0.8424,-1.4672 2.0925,-2.1512 3.8857,-2.1512 2.9622,0 4.6196,1.9338 4.7557,5.5755 l -3.424,0 c -0.0544,-1.6849 -0.4348,-2.3644 -1.3317,-2.3644 -0.5978,0 -1.1412,0.5165 -1.3042,1.2501 -0.1902,0.7066 -0.2716,1.7934 -0.2716,2.9622 0,1.0324 0.0814,1.9834 0.2716,2.7989 0.1902,0.8694 0.6522,1.3586 1.2501,1.3586 0.4892,0 0.8696,-0.2446 1.114,-0.7066 0.1902,-0.326 0.2446,-0.7064 0.2718,-1.6305 l 0,-0.326 3.4781,0 z m 10.6753,-5.7336 -5.2991,0 5.2991,8.2065 0,3.0977 -8.7503,0 0,-2.9075 4.7013,0 -5.2719,-8.2065 0,-3.098 9.3209,0 0,2.9078 z m 12.3868,3.1521 0,0.7064 c 0,2.4457 -0.3259,4.0218 -1.1415,5.4351 -0.8694,1.4672 -2.3369,2.2825 -4.1031,2.2825 -3.5328,0 -5.6251,-2.8806 -5.6251,-7.7176 0,-1.6846 0.4073,-3.3424 1.114,-4.5924 0.9241,-1.6033 2.4458,-2.4503 4.4297,-2.4503 2.8803,0 4.8096,1.8252 5.1903,4.896 l -3.4243,0 c -0.2716,-1.2229 -0.8966,-1.902 -1.7932,-1.902 -0.8427,0 -1.4947,0.5706 -1.7665,1.6029 -0.1358,0.4621 -0.1902,0.8697 -0.2175,1.7394 l 7.3372,0 z m -7.3099,2.6359 c 0.0272,1.8479 0.6794,2.799 1.902,2.799 1.1415,0 1.8207,-1.0599 1.8479,-2.799 l -3.7499,0 z m 8.7454,-4.1576 c 0.2718,-3.0438 2.147,-4.8146 5.1089,-4.8146 1.4131,0 2.6359,0.3852 3.5056,1.1188 0.9238,0.7881 1.5488,2.1739 1.5488,3.4509 0,1.7938 -0.788,3.1524 -2.2555,3.9133 -0.5434,0.2718 -1.2229,0.5162 -2.1739,0.788 -0.9782,0.2718 -1.3045,0.4076 -1.5488,0.5981 -0.2174,0.2171 -0.3532,0.5434 -0.3532,0.8694 0,0.625 0.4617,1.0327 1.1953,1.0327 0.8153,0 1.2501,-0.5437 1.3318,-1.5761 l 3.4781,0 c -0.2988,2.9075 -2.1195,4.5652 -5.0001,4.5652 -2.69,0 -4.5652,-1.7391 -4.5652,-4.2937 0,-1.114 0.4349,-2.2552 1.1416,-3.016 0.5706,-0.5981 1.3042,-1.0057 2.5543,-1.3862 0.8966,-0.2987 0.625,-0.2174 0.8966,-0.2987 0.7336,-0.2447 0.7608,-0.2447 0.8424,-0.2719 0.5706,-0.2174 0.8969,-0.6519 0.8969,-1.1684 0,-0.788 -0.5706,-1.3314 -1.4134,-1.3314 -1.0323,0 -1.5757,0.5975 -1.7118,1.8206 l -3.4784,0 z m 12.2783,-4.5382 3.5053,0 0,9.1576 c 0,1.4947 0.462,2.1469 1.5219,2.1469 0.5706,0 1.114,-0.3534 1.2501,-0.8424 0.0813,-0.2174 0.1358,-0.7064 0.1358,-1.1957 l 0,-9.2664 3.5053,0 0,10.1902 c 0,2.636 -1.5216,4.2937 -3.9674,4.2937 -1.4675,0 -2.3369,-0.5165 -2.8803,-1.7119 l 0,1.44 -3.0707,0 0,-14.212 z m 22.7676,14.212 -3.0708,0 0,-1.44 c -0.4893,1.0868 -1.5489,1.7119 -2.935,1.7119 -2.8531,0 -4.538,-2.772 -4.538,-7.5002 0,-4.4836 1.7391,-7.2601 4.538,-7.2601 1.3317,0 2.2555,0.521 2.935,1.7167 l 0,-1.4403 3.0708,0 0,14.212 z m -3.5056,-8.3423 c 0,-1.1957 -0.0817,-1.6305 -0.3532,-2.147 -0.2719,-0.489 -0.7881,-0.8149 -1.3318,-0.8149 -1.2498,0 -1.7934,1.2225 -1.7934,4.0759 0,2.9894 0.5436,4.3208 1.7934,4.3208 1.0599,0 1.685,-0.924 1.685,-2.5545 l 0,-2.8803 z"
         inkscape:connector-curvature="0" /><path
         id="path3106"
         style="fill:#ffffff;fill-opacity:1;fill-rule:nonzero;stroke:none"
         d="m 345.1408,569.2141 2.1498,0 0,4.2075 2.9639,0 0,1.9811 -2.9639,0 0,2.073 2.9639,0 0,1.9812 -5.1137,0 0,-10.2428 z m 15.0423,10.2428 0,-6.8953 c 0,-1.3207 0.1996,-1.9812 0.7985,-2.5951 0.6143,-0.6296 1.6586,-1.0163 2.7488,-1.0163 0.9828,0 1.9655,0.3252 2.5954,0.8626 0.6911,0.5837 0.9675,1.3669 0.9675,2.7488 l 0,6.8953 -2.1501,0 0,-6.8953 c 0,-0.6602 -0.0612,-0.8754 -0.2917,-1.1517 -0.2611,-0.3223 -0.6296,-0.476 -1.167,-0.476 -0.4607,0 -0.8294,0.169 -1.0902,0.476 -0.2152,0.2919 -0.2614,0.4915 -0.2614,1.1517 l 0,6.8953 -2.1498,0 z m 17.4997,-10.2428 2.1498,0 0,3.7775 c 0,0.599 -0.0153,1.2438 -0.0153,1.7198 -0.0306,0.6145 -0.0462,0.8909 -0.1227,1.6585 0.1227,-0.4606 0.1686,-0.6911 0.261,-0.9519 0.169,-0.4915 0.4298,-1.1826 0.6449,-1.6741 l 1.9655,-4.5298 2.0118,0 0,10.2428 -2.1498,0 0,-3.4555 c 0,-1.3053 0.0153,-1.6123 0.1074,-2.8562 -0.1074,0.3532 -0.1074,0.3226 -0.3072,0.8601 -0.4607,1.1976 -0.4301,1.1514 -0.8904,2.0882 l -1.5973,3.3634 -2.0577,0 0,-10.2428 z m 17.3614,0 3.0404,0 c 1.1673,0 1.9196,0.2455 2.6107,0.8904 1.0137,0.9215 1.597,2.4727 1.597,4.254 0,1.4587 -0.3685,2.7331 -1.0749,3.67 -0.7679,1.0289 -1.6585,1.4284 -3.1172,1.4284 l -3.056,0 0,-10.2428 z m 2.1498,1.9809 0,6.2807 0.5527,0 c 0.7988,0 1.1058,-0.0768 1.4284,-0.3379 0.568,-0.4606 0.8597,-1.4437 0.8597,-2.8564 0,-1.1668 -0.2301,-2.0421 -0.6908,-2.5643 -0.3072,-0.3688 -0.722,-0.5221 -1.3668,-0.5221 l -0.7832,0 z m 14.0572,-1.9809 2.2448,0 0.6293,1.9809 2.6569,0 0.6296,-1.9809 2.2419,0 -3.1635,10.2428 -2.0576,0 -3.1814,-10.2428 z m 5.1778,3.7469 -1.9964,0 1.0136,4.1306 0.9828,-4.1306 z m 19.9874,2.4724 c -0.1077,2.6566 -1.5511,4.2842 -3.7778,4.2842 -2.4264,0 -4.0081,-2.1189 -4.0081,-5.3745 0,-3.2711 1.5817,-5.3929 4.0081,-5.3929 2.2267,0 3.6701,1.6458 3.7778,4.2872 l -2.2269,0 c -0.0459,-0.6449 -0.0919,-0.9063 -0.1996,-1.2442 -0.2302,-0.6755 -0.7064,-1.0593 -1.3359,-1.0593 -1.0749,0 -1.7507,1.3054 -1.7507,3.4092 0,2.0883 0.6758,3.3937 1.7507,3.3937 0.6295,0 1.1057,-0.3838 1.3359,-1.0596 0.1077,-0.3226 0.1537,-0.599 0.1996,-1.2438 l 2.2269,0 z m 15.1347,4.0235 -2.1498,0 0,-7.3098 c 0,-0.86 -0.2457,-1.2132 -0.8447,-1.2132 -0.3841,0 -0.6449,0.2458 -0.7526,0.7064 -0.0459,0.1996 -0.0612,0.3994 -0.0612,0.8291 l -2.1527,0 0,-0.3378 c 0,-1.8735 1.2158,-3.1814 2.9665,-3.1814 0.9213,0 1.766,0.3714 2.3187,0.9854 0.4763,0.553 0.6758,1.1979 0.6758,2.196 l 0,7.3253 z m 9.3736,-10.2428 2.2448,0 0.6293,1.9809 2.6569,0 0.6296,-1.9809 2.2419,0 -3.1635,10.2428 -2.0577,0 -3.1813,-10.2428 z m 5.1778,3.7469 -1.9965,0 1.0137,4.1306 0.9828,-4.1306 z"
         inkscape:connector-curvature="0" /><path
         id="path3108"
         style="fill:#e87817;fill-opacity:1;fill-rule:nonzero;stroke:none"
         d="m 270.2563,586.6308 -35.5182,0 0,-71.6769 35.5184,0 0,3.9124 -29.207,0 -0.1556,0 0,0.1556 0,63.5409 0,0.1556 0.1556,0 29.2068,0 0,3.9124 z"
         inkscape:connector-curvature="0" /><path
         id="path3110"
         style="fill:#e87817;fill-opacity:1;fill-rule:nonzero;stroke:none"
         d="m 312.4307,579.7182 -33.1906,0 0,-3.9121 26.6899,0 0.1553,0 3e-4,-0.1556 0,-63.5409 0,-0.1556 -0.1556,0 -27.4074,0 0,-3.9118 33.9081,0 0,71.676 z"
         inkscape:connector-curvature="0" /></g></g></svg>